<?xml version="1.0" standalone="no"?>
<!DOCTYPE svg PUBLIC "-//W3C//DTD SVG 20010904//EN"
 "http://www.w3.org/TR/2001/REC-SVG-20010904/DTD/svg10.dtd">
<svg version="1.0" xmlns="http://www.w3.org/2000/svg"
 width="300.000000pt" height="300.000000pt" viewBox="0 0 300.000000 300.000000"
 preserveAspectRatio="xMidYMid meet">
<metadata>
Created by potrace 1.10, written by Peter Selinger 2001-2011
</metadata>
<g transform="translate(0.000000,300.000000) scale(0.100000,-0.100000)"
fill="#000000" stroke="none">
<path d="M1429 2706 c-4 -4 -83 -18 -111 -19 -10 -1 -18 -5 -18 -9 0 -4 -7 -5
-15 -2 -17 7 -164 -37 -243 -72 -29 -13 -59 -24 -66 -24 -7 0 -25 -9 -39 -20
-14 -11 -30 -20 -36 -20 -6 0 -11 -4 -11 -10 0 -5 -11 -12 -25 -16 -14 -3 -25
-9 -25 -13 0 -3 -17 -17 -37 -31 -20 -14 -58 -45 -83 -70 -26 -25 -60 -56 -77
-70 -16 -14 -51 -56 -77 -95 -26 -38 -51 -72 -54 -75 -11 -8 -52 -99 -52 -115
0 -8 -5 -15 -11 -15 -5 0 -8 -4 -5 -9 4 -5 2 -11 -4 -13 -5 -1 -11 -12 -13
-23 -7 -39 -20 -80 -27 -90 -14 -18 -42 -129 -53 -210 -16 -108 -6 -305 22
-425 24 -105 77 -256 98 -281 7 -8 13 -19 13 -23 0 -8 88 -145 104 -162 6 -6
31 -35 55 -63 25 -28 56 -59 70 -68 15 -9 -6 17 -45 58 -143 149 -247 359
-290 587 -24 131 -15 386 19 502 93 319 267 545 543 708 318 188 771 193 1100
12 248 -138 437 -356 534 -618 16 -42 29 -69 30 -60 0 9 -13 50 -30 91 -16 42
-30 80 -30 86 0 6 -4 11 -10 11 -5 0 -10 6 -10 13 0 8 -18 42 -40 76 -22 34
-40 65 -40 70 0 14 -222 235 -265 264 -62 42 -109 76 -122 87 -7 5 -17 10 -22
10 -6 0 -40 16 -76 35 -36 19 -65 32 -65 28 0 -3 -6 0 -13 6 -8 6 -16 9 -19 6
-3 -3 -21 2 -41 10 -20 8 -48 15 -62 15 -14 0 -25 4 -25 10 0 5 -6 7 -14 4 -8
-3 -31 -1 -52 5 -22 6 -79 13 -129 17 -49 3 -93 8 -96 10 -3 2 -8 2 -10 0z"/>
<path d="M1340 2589 c-400 -63 -721 -327 -855 -702 -123 -344 -66 -732 150
-1022 208 -279 529 -440 875 -438 276 1 520 100 723 293 75 71 78 76 61 90
-10 8 -15 10 -12 5 4 -6 -7 -21 -23 -34 -16 -13 -26 -28 -22 -34 3 -5 1 -7 -4
-4 -6 4 -26 -8 -44 -26 -62 -61 -168 -137 -199 -142 -3 -1 -31 -13 -62 -29
-32 -15 -61 -27 -65 -28 -4 0 -24 -6 -43 -14 -52 -20 -158 -41 -214 -43 -27
-1 -55 -6 -63 -12 -9 -8 -13 -8 -13 -1 0 7 -30 10 -80 8 -45 -1 -83 0 -85 2
-2 3 -23 6 -47 9 -82 7 -282 78 -300 106 -6 9 -8 9 -8 0 0 -7 -5 -13 -11 -13
-5 0 -7 5 -3 12 4 6 3 8 -3 5 -6 -4 -18 2 -28 13 -10 11 -22 17 -26 14 -5 -3
-9 -1 -9 3 0 9 -57 46 -63 41 -9 -7 -36 25 -30 35 3 6 1 7 -5 3 -19 -11 -202
184 -194 207 1 5 -2 6 -8 2 -5 -3 -10 -2 -10 4 0 5 -13 30 -30 54 -16 25 -30
50 -30 55 0 6 -9 26 -20 44 -79 135 -122 483 -80 648 41 160 81 270 98 270 16
0 20 -34 21 -181 2 -143 7 -166 43 -188 28 -17 52 -6 81 39 15 21 42 50 60 65
30 22 38 24 61 14 39 -18 104 4 117 39 10 27 11 26 34 -28 l24 -55 -26 -27
c-27 -29 -30 -45 -18 -132 l8 -58 -34 17 c-19 10 -42 24 -51 33 -20 17 -119
12 -144 -8 -7 -7 -25 -9 -38 -6 -14 3 -28 1 -31 -4 -4 -6 -11 -7 -17 -4 -7 5
-8 2 -3 -6 6 -10 4 -12 -7 -7 -21 8 -43 -43 -32 -75 4 -12 7 -36 6 -53 0 -30
0 -30 10 -5 5 14 8 42 6 62 -3 34 0 39 30 54 18 8 41 13 50 9 14 -5 12 -9 -11
-21 -15 -8 -32 -12 -37 -9 -6 4 -10 3 -9 -2 1 -4 0 -12 -1 -18 -1 -5 -1 -34 0
-64 1 -48 0 -53 -16 -47 -17 7 -17 6 0 -13 14 -15 15 -23 6 -40 -6 -12 -14
-21 -19 -21 -7 0 -3 -111 5 -119 2 -2 4 23 4 56 0 71 12 81 59 52 17 -10 31
-16 31 -13 0 3 6 -1 14 -9 14 -13 182 -119 231 -145 14 -7 25 -17 25 -23 0 -5
6 -9 14 -9 8 0 16 -3 18 -8 2 -4 16 -17 32 -30 24 -18 32 -20 45 -10 44 35 62
40 82 22 19 -17 18 -18 -28 -46 -55 -32 -79 -36 -44 -8 16 14 19 20 8 20 -8 0
-18 -7 -21 -16 -5 -13 -15 -9 -59 22 -28 21 -54 41 -57 44 -3 4 -12 9 -20 13
-8 4 -60 36 -115 72 -55 36 -111 71 -125 78 -14 6 -27 14 -30 18 -7 7 -40 20
-40 14 0 -13 25 -55 32 -55 5 0 6 5 3 10 -3 6 -1 10 5 10 6 0 13 -7 16 -15 4
-8 12 -15 19 -15 7 0 18 -7 25 -15 7 -8 20 -14 29 -13 8 2 16 -4 16 -12 1 -8
7 -14 14 -12 8 2 21 -4 31 -13 9 -8 20 -12 23 -8 4 3 7 1 7 -5 0 -10 27 -28
78 -51 17 -8 21 -16 17 -33 -4 -18 1 -26 27 -39 19 -9 32 -23 32 -33 -1 -8 3
-13 8 -10 5 4 8 14 5 23 -3 14 1 17 19 13 15 -3 24 -11 24 -22 0 -10 3 -27 7
-37 6 -15 8 -13 13 11 7 38 30 47 30 12 0 -32 8 -32 70 -1 37 19 50 22 50 12
0 -8 -18 -22 -40 -32 -23 -10 -43 -22 -46 -27 -7 -10 23 1 64 25 29 17 33 25
30 53 -3 36 17 70 26 43 13 -40 14 -42 15 -19 1 38 -12 52 -41 45 -19 -5 -24
-12 -21 -26 3 -10 1 -19 -4 -19 -6 0 -27 -11 -47 -25 -33 -22 -36 -23 -36 -6
0 11 12 24 30 31 42 17 47 30 21 50 l-23 16 27 18 c26 17 62 15 51 -3 -3 -5 1
-11 9 -15 8 -3 15 -3 15 -1 0 13 -25 55 -32 55 -5 0 -34 -13 -66 -29 -31 -15
-67 -32 -80 -36 -23 -7 -24 -6 -20 62 l3 68 80 42 c88 47 100 50 91 28 -3 -8
-2 -25 3 -37 l8 -23 7 22 c5 15 13 20 26 18 11 -2 22 0 25 6 4 5 -1 9 -9 9
-29 0 -17 19 25 41 44 22 57 18 61 -21 3 -21 -4 -27 -50 -44 -57 -20 -54 -39
4 -26 34 8 64 31 64 49 0 5 8 15 18 20 16 10 16 10 0 11 -10 0 -18 6 -18 14 0
8 -3 21 -6 30 -4 11 -1 16 10 16 10 0 16 -9 16 -24 0 -14 5 -28 10 -31 6 -3
10 -30 10 -60 0 -45 -3 -55 -20 -60 -11 -4 -18 -10 -15 -15 3 -5 12 -7 19 -4
17 7 27 -30 12 -47 -8 -9 -7 -10 8 -5 10 3 26 1 35 -6 13 -10 12 -8 -2 8 -21
26 -30 194 -10 194 7 0 36 14 65 30 99 57 94 56 135 26 66 -46 75 -54 70 -63
-3 -4 5 -8 18 -8 19 0 21 3 12 14 -10 12 -8 12 13 1 l25 -14 -42 -18 c-23 -10
-51 -30 -63 -45 -16 -21 -23 -24 -33 -14 -9 10 -5 19 23 42 l35 30 -44 -26
-43 -27 -64 33 c-44 23 -67 30 -74 23 -8 -8 17 -23 79 -52 49 -22 92 -46 96
-52 4 -6 9 -36 11 -67 2 -31 6 -58 9 -61 5 -5 10 74 8 129 0 19 9 32 40 51 45
29 57 28 57 -5 0 -14 -11 -29 -28 -39 -24 -14 -29 -24 -31 -63 l-2 -46 26 17
c14 9 25 15 26 13 0 -2 2 -14 3 -27 2 -12 8 -28 14 -34 8 -8 10 -4 6 18 -6 30
-23 58 -32 49 -3 -3 -11 0 -18 6 -10 8 -11 16 -3 30 11 22 35 25 42 7 3 -8 6
-7 6 4 1 25 17 30 35 12 9 -8 16 -11 16 -5 0 5 -5 13 -11 16 -13 8 -31 51 -36
85 -2 14 5 42 16 63 l19 38 -34 22 c-18 12 -34 25 -34 29 0 3 14 18 31 32 17
14 25 26 19 26 -7 0 -25 -14 -41 -31 -25 -27 -29 -28 -29 -11 0 11 7 25 15 32
8 6 13 16 12 22 -1 5 5 14 13 19 8 5 30 17 48 28 l34 19 -38 26 c-21 14 -35
26 -31 26 10 0 87 -51 87 -58 0 -3 -7 -10 -16 -17 -15 -10 -13 -15 19 -39 21
-16 34 -33 30 -41 -4 -11 -11 -10 -34 7 -16 12 -29 27 -29 34 0 7 -4 15 -9 18
-13 8 -72 -14 -66 -25 3 -4 12 -6 21 -2 17 6 79 -33 140 -89 23 -21 41 -33 40
-25 -3 21 -27 48 -36 42 -5 -3 -11 -1 -15 4 -3 5 3 15 12 20 16 10 14 15 -24
50 -33 30 -39 40 -27 45 9 4 12 2 8 -5 -4 -7 0 -9 14 -5 36 12 187 -122 235
-207 9 -18 17 -26 17 -19 0 37 -95 172 -121 172 -7 0 -10 3 -6 6 3 3 -3 15
-14 27 -10 11 -19 28 -19 36 1 23 25 51 44 51 9 0 16 4 16 9 0 5 10 11 23 14
12 3 33 8 47 12 15 4 7 -4 -20 -20 l-45 -26 48 6 c38 5 53 3 68 -11 25 -23 24
-10 -3 26 -32 44 -16 47 38 6 44 -34 75 -46 74 -28 -1 4 -32 26 -70 50 -39 24
-70 50 -70 58 0 12 5 11 28 -3 15 -10 29 -20 32 -23 10 -10 45 -31 63 -36 9
-4 17 -11 17 -18 0 -8 2 -8 8 0 4 7 29 19 56 28 42 14 86 47 86 63 0 3 -21 -7
-46 -21 -67 -37 -74 -35 -74 23 l0 50 56 31 c64 37 66 52 2 20 -69 -35 -78
-47 -78 -102 0 -49 -9 -58 -39 -39 -14 9 -24 131 -10 131 4 0 5 8 2 19 -3 10
1 22 8 26 7 5 10 4 6 -2 -4 -6 1 -10 11 -9 24 2 79 33 84 47 3 9 11 8 29 -3
13 -9 35 -19 49 -23 24 -6 24 -6 -5 19 -16 14 -50 35 -75 46 -25 12 -84 44
-132 72 -65 39 -93 62 -115 96 l-28 46 -3 -29 c-3 -21 3 -34 20 -47 l23 -18
-28 0 c-33 0 -92 -29 -136 -65 -23 -20 -31 -35 -31 -60 0 -19 -5 -37 -11 -41
-9 -5 -10 7 -5 44 4 34 3 52 -4 52 -6 0 -10 -24 -10 -55 0 -30 -4 -55 -10 -55
-5 0 -10 18 -10 40 0 27 -6 42 -17 49 -16 9 -16 10 5 11 13 0 22 6 22 16 0 8
-4 13 -9 9 -5 -3 -12 -1 -15 4 -12 18 12 21 48 6 20 -8 36 -13 36 -10 0 3 -10
9 -22 14 -19 7 -11 13 55 45 68 33 77 40 77 64 -1 23 -2 24 -11 10 -12 -22
-158 -93 -183 -90 -11 1 -17 0 -14 -3 3 -3 2 -21 -2 -40 -4 -18 -4 -37 0 -42
5 -4 12 -25 15 -45 l7 -38 -36 0 c-19 0 -61 12 -93 26 -40 17 -70 24 -95 21
-21 -2 -38 -1 -38 3 0 3 -13 22 -30 40 -16 18 -30 29 -30 23 0 -11 53 -127 71
-153 5 -8 12 -23 15 -32 4 -10 29 -32 56 -49 l50 -32 -23 -18 c-23 -17 -45
-16 -34 1 3 5 -11 20 -31 34 -35 24 -38 24 -71 8 -29 -14 -37 -14 -56 -2 -12
7 -76 44 -141 81 -131 75 -128 66 -35 99 32 12 39 11 77 -14 23 -14 44 -26 47
-26 2 0 28 -15 57 -34 29 -18 64 -38 78 -45 l25 -12 -25 21 c-14 11 -67 44
-117 73 -93 52 -108 66 -75 68 9 0 12 3 5 5 -7 3 -48 -10 -91 -29 -50 -21 -85
-31 -93 -26 -7 4 -11 10 -9 13 14 13 114 44 127 39 10 -4 14 -2 10 4 -4 5 5
15 19 21 21 10 30 8 67 -19 23 -17 57 -37 75 -45 18 -7 31 -18 28 -22 -3 -5 4
-18 17 -28 22 -19 22 -19 5 1 -9 11 -17 25 -17 30 -4 41 -35 87 -55 79 -7 -3
-33 11 -59 31 -49 38 -64 57 -23 30 36 -24 63 4 75 80 10 66 9 70 -13 62 -11
-5 -14 -19 -10 -61 4 -47 1 -57 -15 -66 -11 -5 -23 -10 -27 -10 -4 0 -4 35 0
77 l6 77 -36 37 c-28 29 -37 46 -38 75 -1 25 4 39 14 42 8 3 12 1 8 -3 -4 -4
12 -17 34 -29 47 -25 57 -40 32 -50 -11 -4 -27 3 -46 20 -15 15 -30 25 -33 22
-3 -3 11 -18 31 -33 31 -24 39 -26 61 -16 22 10 29 9 48 -9 20 -19 23 -30 21
-101 -2 -95 9 -91 18 7 5 65 4 73 -17 95 -54 56 -101 92 -133 101 -23 6 -36
16 -40 33 -5 21 -74 95 -74 79 0 -3 -15 4 -34 15 -18 12 -42 21 -53 21 -27 0
-44 -21 -33 -40 26 -40 0 -124 -31 -104 -7 4 -9 3 -5 -4 3 -6 -3 -13 -14 -17
-22 -7 -27 -44 -9 -62 9 -9 8 -11 -2 -9 -33 7 -68 26 -81 45 -8 12 -18 18 -22
14 -4 -4 -4 1 0 11 5 14 3 17 -7 14 -8 -3 -28 5 -46 18 -35 27 -93 36 -100 16
-3 -7 9 -25 26 -41 17 -16 31 -34 31 -40 0 -24 -34 -80 -55 -89 -14 -7 -26
-24 -30 -43 -4 -19 -15 -33 -26 -36 -10 -3 -19 -9 -19 -14 0 -5 -20 2 -45 16
-25 13 -67 26 -93 28 -32 2 -47 8 -48 18 -1 26 93 132 197 225 42 36 142 101
214 137 97 49 189 74 335 93 107 14 139 15 225 4 108 -14 218 -39 278 -64 20
-9 37 -13 37 -9 0 5 4 4 8 -2 4 -5 25 -18 47 -28 69 -32 199 -124 266 -190 65
-62 146 -157 134 -157 -3 0 3 -9 13 -20 33 -35 91 -156 127 -262 36 -108 49
-109 15 -1 -108 346 -364 610 -697 718 -150 49 -348 67 -493 44z m-35 -225
l73 -46 4 -64 c4 -58 8 -68 41 -102 24 -25 37 -47 37 -65 0 -30 -8 -32 -59
-13 l-34 12 -4 104 c-2 58 -9 110 -15 117 -6 7 -37 29 -69 49 -33 19 -59 40
-59 45 0 15 9 11 85 -37z m35 -134 c0 -39 -2 -70 -5 -70 -3 0 -28 15 -55 34
-27 19 -55 37 -62 40 -10 3 -8 8 5 16 11 7 17 23 17 45 0 64 7 68 56 34 l44
-30 0 -69z m-345 24 c72 -54 75 -58 75 -98 0 -62 10 -85 41 -102 18 -9 29 -10
29 -4 0 14 49 -12 80 -43 30 -29 70 -51 70 -39 0 5 -45 39 -100 76 -55 36
-100 73 -100 81 0 18 14 19 32 2 7 -7 40 -30 73 -50 33 -21 83 -53 111 -71 37
-25 55 -31 65 -24 11 8 11 9 -2 5 -8 -3 -26 3 -39 13 l-24 18 26 12 c22 10 30
9 51 -6 34 -26 62 -104 37 -104 -6 0 -13 13 -16 30 -6 29 -7 29 -35 15 -15 -8
-33 -15 -40 -15 -6 0 -33 -10 -60 -22 -40 -19 -49 -28 -49 -48 0 -14 -5 -32
-10 -40 -7 -11 -10 -3 -10 30 l0 45 -99 68 c-55 38 -111 79 -124 91 -14 13
-33 26 -42 30 -17 6 -17 8 2 29 22 24 53 80 53 96 0 5 -20 22 -45 38 -43 27
-56 43 -35 43 6 0 44 -25 85 -56z m267 -59 c62 -40 77 -55 77 -75 1 -14 -3
-20 -7 -14 -4 5 -46 34 -95 63 -71 44 -85 56 -76 68 14 16 6 20 101 -42z
m-112 -42 c0 -5 13 -9 30 -10 33 -2 95 -31 86 -40 -17 -18 -75 -12 -101 9 -16
13 -40 28 -54 35 l-26 11 33 1 c17 1 32 -2 32 -6z m-48 -190 l86 -61 -8 -41
c-4 -23 -5 -41 -3 -41 3 0 -9 -13 -27 -30 -18 -16 -36 -30 -41 -30 -5 0 -9 17
-9 38 0 28 -6 44 -25 60 -14 12 -25 28 -25 35 0 7 -39 41 -86 76 -77 58 -84
65 -70 79 14 14 14 18 0 33 -9 10 -13 22 -10 28 4 6 34 -10 70 -37 35 -26 102
-75 148 -109z m238 87 c0 -4 -10 -10 -22 -14 -32 -8 -40 -7 -34 3 3 5 -8 11
-24 15 -37 7 -38 19 -2 32 22 8 32 7 55 -8 15 -11 27 -23 27 -28z m-597 -18
c14 -12 33 -16 70 -15 46 2 56 -2 110 -42 33 -24 65 -46 71 -48 7 -3 5 -11 -5
-23 -9 -10 -19 -26 -22 -34 -4 -12 -6 -12 -6 2 -1 9 -33 44 -72 77 -61 51 -73
58 -86 46 -7 -8 -21 -11 -29 -8 -14 5 -15 3 -5 -15 17 -32 51 -52 80 -46 19 4
32 -1 49 -19 l24 -25 -49 -16 c-44 -14 -28 -14 30 0 23 5 24 3 26 -54 l2 -59
-46 -13 c-44 -12 -48 -12 -68 10 -12 12 -16 19 -8 15 12 -7 13 1 8 47 l-7 55
45 13 c25 7 44 15 41 17 -9 9 -87 -19 -93 -32 -3 -11 -10 -12 -21 -5 -24 13
-70 53 -52 44 8 -4 23 -14 33 -22 9 -8 17 -11 17 -5 0 5 -19 20 -42 33 -22 12
-37 17 -33 10 6 -9 4 -11 -4 -5 -7 4 -11 15 -8 24 3 13 -3 17 -29 16 -45 0
-48 -8 -11 -28 18 -10 43 -34 57 -55 13 -20 35 -50 47 -65 l23 -29 -66 -64
c-53 -51 -70 -62 -81 -53 -7 7 -16 9 -19 6 -3 -3 8 -13 25 -22 17 -8 31 -11
31 -5 0 20 71 89 103 99 l32 10 -24 -17 c-32 -23 -82 -74 -102 -103 l-16 -23
-33 21 -34 21 4 99 c2 54 4 121 4 148 1 37 7 56 24 75 36 40 26 54 -17 24 -30
-21 -45 -7 -32 29 6 15 16 27 22 27 7 0 36 -18 65 -40 29 -22 55 -36 59 -31 3
5 -4 12 -15 16 -25 8 -26 22 -2 28 9 2 5 3 -10 1 -16 -2 -36 5 -50 17 l-23 20
49 -5 c27 -4 58 -14 69 -24z m102 -72 c18 -19 17 -20 -7 -20 -26 0 -53 22 -41
33 12 12 30 7 48 -13z m1338 -19 c23 -11 68 -35 100 -55 33 -19 72 -38 88 -41
40 -9 36 -21 -12 -46 l-42 -21 -28 21 c-15 12 -31 21 -34 21 -12 0 -4 -24 12
-35 18 -13 17 -18 -13 -73 -1 -2 -18 7 -38 19 -26 15 -34 25 -27 32 7 7 16 5
29 -6 20 -19 54 -25 36 -7 -12 12 -222 130 -232 130 -3 0 3 -7 14 -16 19 -15
18 -15 -4 -11 -12 3 -20 1 -16 -4 3 -5 11 -9 17 -9 7 0 14 -13 15 -30 2 -28 0
-30 -30 -27 -32 3 -33 4 -30 47 2 25 9 48 17 53 8 4 20 13 27 20 15 13 88 54
101 56 4 1 27 -8 50 -18z m-1156 -57 c-3 -3 8 -19 24 -35 45 -44 33 -64 -24
-38 -20 9 -30 8 -51 -6 -26 -17 -26 -17 -26 9 0 16 5 26 15 26 8 0 25 11 37
25 12 14 24 25 26 25 3 0 3 -3 -1 -6z m1058 -50 c14 -9 22 -20 19 -25 -3 -5 3
-6 13 -2 10 3 15 3 11 -2 -4 -4 0 -14 10 -21 21 -17 36 -18 26 -2 -4 7 -3 8 4
4 6 -4 9 -13 6 -21 -5 -11 -11 -12 -32 -2 -41 17 -73 39 -67 45 3 3 -2 14 -12
24 -20 22 -10 23 22 2z m-818 -20 c2 -6 -15 -18 -37 -27 -28 -11 -40 -21 -40
-35 0 -14 -7 -19 -25 -19 -47 0 -23 43 40 75 42 21 57 22 62 6z m510 -30 c59
-26 84 -30 163 -26 33 2 41 5 30 12 -26 17 62 -1 100 -21 19 -9 49 -32 67 -51
l32 -33 -74 -40 -75 -40 -35 19 c-19 11 -35 22 -35 26 0 8 72 35 87 32 7 -2
25 4 40 12 26 14 26 15 6 16 -12 0 -25 -5 -29 -11 -4 -7 -10 -7 -17 0 -7 7
-25 2 -58 -16 l-49 -25 -139 79 c-77 43 -140 81 -141 86 -1 16 73 6 127 -19z
m-767 7 c0 -5 12 -14 28 -20 15 -6 38 -21 52 -32 l25 -21 -35 6 c-25 4 -31 3
-20 -4 25 -16 -7 -12 -41 5 -16 9 -27 20 -24 25 3 5 1 11 -5 15 -15 10 -12 35
5 35 8 0 15 -4 15 -9z m318 -9 c15 -10 91 -56 169 -101 79 -46 145 -87 148
-91 6 -10 -29 -32 -37 -24 -3 2 -17 -1 -32 -7 -25 -12 -41 -45 -38 -81 1 -26
-9 -22 -50 15 -19 17 -37 33 -39 34 -2 1 -12 5 -21 8 -10 4 -15 11 -12 16 3 5
-2 6 -10 3 -20 -8 -95 44 -102 71 -5 21 -35 51 -87 88 -15 10 -16 17 -8 40 7
17 18 27 30 27 11 0 23 5 26 10 9 15 34 12 63 -8z m429 -74 c-9 -5 -9 -10 0
-19 9 -9 15 -9 26 0 12 9 31 1 98 -40 106 -64 107 -66 70 -74 -17 -3 -34 -11
-38 -17 -4 -8 0 -9 13 -4 61 25 76 28 86 18 7 -7 -6 -19 -43 -37 l-53 -27 -72
73 c-39 41 -87 86 -105 100 -19 15 -42 41 -53 59 l-19 33 51 -29 c32 -18 47
-31 39 -36z m467 2 c41 -22 46 -29 46 -58 l0 -34 -37 23 c-54 32 -83 60 -83
80 0 22 16 19 74 -11z m-1046 -1 c19 -6 32 -19 34 -31 2 -13 15 -24 38 -32 19
-6 33 -15 30 -21 -7 -14 -40 -17 -40 -3 0 9 -3 9 -12 0 -7 -7 -21 -12 -32 -11
-21 0 -21 1 -1 8 16 7 13 9 -20 16 -22 5 -44 7 -48 6 -5 -1 -23 8 -42 19 -18
11 -40 20 -50 20 -36 0 -7 22 34 25 23 2 45 6 49 9 8 9 25 7 60 -5z m-72 -84
c36 -19 72 -35 80 -35 7 0 16 -12 20 -27 10 -49 12 -52 47 -58 25 -5 46 -1 75
14 l41 21 58 -34 c111 -64 123 -71 123 -78 0 -4 -27 -21 -60 -38 -33 -17 -60
-33 -60 -35 0 -3 32 11 72 31 48 24 77 33 86 28 7 -5 13 -13 12 -18 -1 -5 4
-13 12 -17 11 -7 11 -9 -1 -9 -10 0 -11 -3 -2 -14 12 -14 -13 -33 -116 -85
l-43 -21 0 23 c0 16 9 28 28 36 47 22 114 63 109 68 -3 2 -41 -14 -86 -36
l-80 -41 -148 99 c-136 90 -280 181 -289 181 -1 0 1 -12 6 -27 21 -70 21 -83
0 -83 -19 0 -21 5 -19 68 1 62 4 69 33 94 17 16 32 28 33 28 2 0 32 -16 69
-35z m570 16 c-4 -5 3 -7 13 -4 14 3 19 0 17 -11 -1 -8 -6 -19 -11 -23 -4 -5
-5 -2 0 6 6 11 4 13 -8 8 -10 -4 -24 -10 -32 -13 -8 -3 -15 -1 -15 5 0 6 -8
11 -17 11 -16 1 -16 2 1 15 22 16 61 21 52 6z m504 -26 c0 -17 -9 -29 -30 -40
-41 -21 -57 -19 -57 9 0 16 9 28 31 39 44 22 56 21 56 -8z m-868 -46 l42 -21
-37 -19 c-47 -25 -82 -17 -96 21 -5 16 -7 31 -4 34 13 12 55 5 95 -15z m538
-55 l31 -19 -53 -25 -53 -25 -48 32 c-27 18 -54 33 -60 33 -6 0 13 -15 43 -34
l54 -34 -3 -63 c-1 -41 2 -59 8 -50 7 11 14 9 40 -10 35 -26 35 -27 17 -52 -8
-11 -20 -15 -31 -11 -11 5 -13 9 -5 14 7 4 2 13 -16 25 -24 15 -26 16 -21 1 4
-9 4 -16 2 -16 -4 0 -86 51 -124 77 -2 2 3 11 12 20 9 11 15 33 14 55 -2 31 0
35 13 25 8 -7 17 -15 20 -18 3 -3 15 -11 28 -18 17 -9 22 -9 22 1 0 19 -69 61
-87 53 -14 -5 -83 11 -83 20 0 31 35 46 57 24 8 -8 17 -7 34 5 18 12 20 16 7
16 -9 0 -20 5 -24 11 -4 8 1 9 16 4 17 -5 21 -4 15 6 -6 8 -4 11 6 7 8 -3 28
0 44 7 27 11 33 9 62 -15 17 -15 45 -36 63 -46z m199 31 c-2 -6 -19 -16 -39
-23 -68 -25 -75 -24 -25 7 49 30 69 35 64 16z m-939 -56 c14 -9 65 -42 114
-73 81 -51 87 -56 66 -64 -19 -7 -21 -11 -9 -18 8 -4 19 -9 24 -10 6 -2 28
-12 49 -23 l39 -20 -29 -10 c-16 -6 -41 -17 -56 -25 -24 -13 -29 -13 -36 -1
-4 8 -36 35 -72 60 -62 44 -88 56 -75 35 3 -5 2 -10 -4 -10 -25 0 -17 19 14
34 32 16 47 36 26 36 -5 0 -18 3 -28 7 -16 6 -16 5 -4 -10 12 -15 11 -17 -3
-17 -9 0 -16 8 -16 19 0 11 -9 23 -20 26 -11 3 -20 12 -20 19 0 8 -3 28 -7 46
-7 36 -6 36 47 -1z m920 -2 c0 -30 -10 -40 -26 -26 -10 8 -11 16 -3 30 14 26
29 24 29 -4z m-1166 -3 c22 -21 20 -34 -4 -34 -11 0 -49 -11 -86 -25 -36 -14
-71 -22 -77 -18 -6 3 -7 1 -3 -5 3 -6 0 -14 -8 -19 -9 -5 -16 -28 -19 -63 l-3
-55 -2 66 c-2 51 2 69 16 82 54 51 66 59 87 63 13 2 34 8 47 13 32 13 35 13
52 -5z m747 -35 c27 -8 35 -16 32 -29 -4 -17 -9 -16 -49 8 -39 25 -62 51 -31
38 6 -2 28 -10 48 -17z m-681 -10 c0 -5 7 -9 15 -9 9 0 27 -7 40 -16 13 -9 30
-17 37 -18 26 -4 79 -37 73 -46 -5 -9 46 -50 62 -50 5 0 18 -6 29 -14 18 -14
17 -15 -19 -31 -36 -15 -38 -15 -65 10 -51 47 -51 26 0 -27 16 -16 20 -16 55
-1 47 20 93 24 87 8 -3 -6 -26 -22 -52 -34 -26 -13 -66 -36 -89 -51 -40 -27
-66 -25 -59 4 2 6 1 8 -1 4 -3 -5 -16 -5 -29 -2 -30 8 -30 -1 1 -38 23 -28 25
-28 25 -8 0 19 2 20 15 10 9 -8 15 -30 15 -60 0 -35 -4 -47 -15 -47 -8 0 -15
5 -15 11 0 6 -10 16 -21 21 -25 12 -51 80 -43 112 4 15 22 30 50 42 24 11 44
25 44 30 0 15 -7 14 -40 -6 -30 -18 -31 -17 -100 22 -13 8 -27 23 -31 33 -4
11 -28 32 -53 48 -43 27 -57 44 -37 44 18 0 106 43 95 47 -20 7 -154 -68 -154
-85 0 -12 -5 -9 -14 8 -7 14 -11 28 -9 33 5 9 79 47 90 47 4 -1 -9 -10 -29
-21 -71 -37 -38 -29 39 10 71 36 103 42 103 20z m-206 -77 c2 -4 1 -14 -4 -22
-7 -11 -12 -12 -21 -3 -6 6 -8 16 -5 22 8 13 23 14 30 3z m152 -59 c-2 -2 -23
8 -47 21 -32 18 -47 22 -56 14 -9 -7 -13 -7 -13 0 0 21 26 19 73 -6 26 -14 45
-27 43 -29z m-109 0 c19 -9 37 -22 40 -30 3 -8 24 -23 47 -35 33 -17 38 -18
27 -4 -12 14 -12 16 4 10 12 -5 16 -4 12 3 -4 6 -31 21 -62 33 -30 12 -55 26
-55 31 0 14 12 11 48 -11 18 -11 39 -20 47 -20 8 0 15 -4 15 -9 0 -6 18 -20
40 -32 24 -14 40 -30 40 -41 0 -31 -35 -17 -41 16 -2 11 -9 21 -16 23 -6 2
-10 -2 -9 -9 6 -29 19 -48 37 -53 10 -4 19 -15 19 -26 0 -11 5 -29 11 -40 19
-37 4 -39 -46 -6 -28 18 -92 59 -142 91 -87 55 -93 61 -93 92 0 40 20 44 77
17z"/>
<path d="M926 2051 c-4 -5 -2 -12 4 -16 5 -3 10 -3 10 1 0 4 7 -1 15 -12 8
-10 15 -15 15 -10 0 5 9 -2 21 -15 11 -13 25 -24 30 -24 5 0 14 -7 19 -15 5
-8 10 -11 10 -7 0 4 6 2 14 -5 8 -7 11 -17 8 -23 -3 -5 -2 -7 3 -3 4 4 15 0
24 -10 9 -9 25 -19 36 -21 19 -3 19 -2 2 16 -9 11 -43 37 -75 59 -31 21 -74
51 -94 66 -20 16 -39 24 -42 19z"/>
<path d="M850 1830 c-14 -4 -19 -8 -12 -9 6 -1 12 -13 12 -27 0 -20 4 -25 22
-22 16 2 23 11 25 36 4 34 -1 37 -47 22z"/>
<path d="M1245 1726 c17 -14 36 -26 43 -26 6 0 12 -4 12 -10 0 -5 4 -10 10
-10 5 0 42 -23 81 -51 39 -28 68 -44 64 -37 -5 7 2 4 13 -7 39 -38 51 -45 57
-36 7 12 -50 56 -171 129 -115 70 -155 87 -109 48z"/>
<path d="M1424 1469 c-11 -19 12 -32 33 -19 16 10 16 11 1 6 -20 -6 -25 10 -5
17 7 3 6 6 -5 6 -9 1 -20 -4 -24 -10z"/>
<path d="M711 1296 c4 -4 29 -24 58 -45 28 -21 47 -42 43 -46 -4 -5 -2 -5 5
-2 15 9 62 -9 92 -36 l24 -22 -19 27 c-18 25 -77 58 -103 58 -7 0 -10 4 -6 9
6 11 -33 51 -51 51 -7 0 -21 3 -31 7 -10 3 -15 3 -12 -1z"/>
<path d="M2600 1823 c1 -5 8 -30 16 -58 13 -45 14 -46 8 -10 -3 22 -6 48 -5
58 0 9 -4 17 -10 17 -5 0 -9 -3 -9 -7z"/>
<path d="M2509 1773 c-1 -5 -1 -12 0 -16 1 -4 -7 -10 -16 -14 -10 -4 -20 -9
-23 -13 -3 -3 -26 -18 -51 -33 -35 -20 -46 -32 -46 -51 0 -18 4 -23 16 -18 32
12 71 39 65 45 -4 3 9 22 28 41 19 19 35 42 35 50 0 16 -6 22 -8 9z"/>
<path d="M2555 1685 c3 -22 8 -85 11 -140 4 -55 8 -102 10 -104 11 -12 1 172
-11 224 -10 39 -13 46 -10 20z"/>
<path d="M2422 1545 c-35 -19 -69 -33 -75 -32 -7 1 -13 -13 -14 -33 0 -19 1
-25 4 -12 2 12 13 27 24 32 22 12 25 1 7 -19 -10 -11 -10 -13 0 -7 8 5 12 -1
12 -19 0 -15 4 -24 10 -20 6 4 8 10 5 15 -6 9 62 45 78 42 4 -1 7 7 7 18 0 11
-3 20 -6 20 -10 0 -69 -34 -76 -45 -4 -5 -8 -1 -8 11 0 14 13 27 45 43 25 12
49 20 55 16 6 -3 7 0 4 9 -3 9 -7 16 -8 15 0 0 -30 -16 -64 -34z"/>
<path d="M1830 1372 c0 -5 11 -19 25 -32 14 -13 25 -28 25 -32 0 -5 6 -15 13
-22 6 -8 30 -34 51 -60 21 -25 41 -44 43 -42 8 8 -19 50 -79 124 -54 66 -78
85 -78 64z"/>
<path d="M2070 1316 c-14 -8 -27 -13 -30 -12 -3 1 -18 -11 -35 -27 l-30 -29
40 21 c51 26 103 61 90 61 -5 -1 -21 -7 -35 -14z"/>
<path d="M2533 1245 c-7 -27 -10 -51 -8 -53 6 -7 26 68 23 85 -3 10 -9 -4 -15
-32z"/>
<path d="M1688 1246 c-39 -20 -74 -46 -64 -46 11 0 96 49 96 55 0 7 -2 6 -32
-9z"/>
<path d="M1923 1183 c-3 -10 -8 -22 -11 -28 -3 -5 -2 -7 3 -3 12 11 45 -11 54
-35 7 -19 9 -18 13 10 4 26 -1 36 -24 53 -27 20 -29 20 -35 3z"/>
<path d="M2130 1178 c-14 -11 -19 -17 -12 -13 8 4 12 -1 12 -14 0 -12 5 -21
10 -21 6 0 8 11 6 24 -2 14 1 27 7 29 7 2 10 7 7 10 -3 3 -16 -3 -30 -15z"/>
<path d="M1183 1154 c-50 -24 -53 -27 -53 -63 l0 -39 40 19 c22 11 40 24 40
29 0 5 8 7 18 4 13 -5 14 -4 3 4 -9 6 -22 5 -40 -4 -33 -18 -38 -17 -38 1 0 9
10 15 24 15 13 0 23 5 23 10 0 12 22 9 32 -5 4 -5 8 5 8 23 0 17 -1 32 -2 32
-2 0 -27 -12 -55 -26z"/>
<path d="M1884 1139 c24 -28 26 -38 27 -137 1 -59 3 -99 6 -89 3 12 11 16 21
13 13 -5 12 -2 -2 9 -28 21 -12 31 18 11 27 -17 71 -22 61 -6 -3 5 -13 6 -21
3 -10 -4 -17 1 -20 14 -4 15 -12 19 -30 15 -25 -4 -25 -4 -23 57 1 33 4 61 6
61 2 0 16 -7 31 -16 15 -9 1 9 -31 40 -64 62 -83 73 -43 25z"/>
<path d="M2046 1145 c-11 -8 -20 -23 -21 -34 -1 -10 -9 -27 -19 -36 -29 -29
-10 -29 28 0 27 20 36 35 36 56 0 33 1 33 -24 14z"/>
<path d="M680 1128 c0 -11 8 -18 20 -18 15 0 20 -7 21 -27 0 -16 3 -22 6 -15
8 20 -6 64 -18 56 -6 -4 -15 0 -20 7 -7 11 -9 10 -9 -3z"/>
<path d="M2480 1086 c0 -9 -4 -15 -9 -12 -5 3 -8 0 -8 -7 1 -17 -37 -97 -46
-97 -5 0 -5 5 -1 12 4 7 3 8 -4 4 -16 -10 -15 -26 2 -26 16 0 83 126 73 137
-4 3 -7 -1 -7 -11z"/>
<path d="M1390 1075 c0 -12 79 -85 91 -85 9 1 7 6 -5 15 -11 8 -22 15 -26 15
-3 0 -11 14 -17 30 -6 17 -18 30 -27 30 -9 0 -16 -2 -16 -5z"/>
<path d="M2045 1003 c-14 -64 -14 -66 -4 -56 6 6 11 21 13 34 1 14 6 30 10 37
4 7 3 12 -3 12 -6 0 -13 -12 -16 -27z"/>
<path d="M2464 988 c-92 -178 -275 -361 -459 -458 -194 -103 -402 -140 -631
-115 -68 7 -129 17 -134 20 -6 4 -26 9 -43 11 -31 4 -31 3 -7 -7 41 -17 140
-37 215 -44 227 -19 381 6 555 91 39 18 73 34 78 35 4 0 15 8 25 16 9 9 17 12
17 7 0 -5 4 -4 8 2 4 6 28 25 54 42 54 37 173 151 210 202 14 19 36 45 47 58
12 12 19 22 15 22 -4 0 -1 8 7 18 8 9 19 26 25 37 5 11 20 37 33 58 12 20 18
37 12 37 -6 0 -18 -15 -27 -32z"/>
<path d="M2379 933 c-8 -9 -13 -26 -12 -37 1 -12 0 -15 -3 -8 -7 16 -34 -3
-34 -24 0 -8 -6 -14 -12 -14 -9 0 -8 -4 2 -10 13 -9 7 -14 -12 -11 -11 1 -10
-17 1 -23 12 -8 89 106 83 123 -3 8 0 11 6 7 6 -3 13 -2 17 4 10 17 -22 11
-36 -7z"/>
<path d="M1993 903 c-10 -8 -12 -12 -5 -8 6 3 12 2 12 -3 0 -10 49 -26 56 -19
2 2 -7 13 -20 24 -22 19 -26 20 -43 6z"/>
</g>
</svg>
